<svg id="Capa_1" enable-background="new 0 0 665.373 665.373" viewBox="0 0 665.373 665.373" xmlns="http://www.w3.org/2000/svg" width="300" height="300" version="1.1" xmlns:xlink="http://www.w3.org/1999/xlink" xmlns:svgjs="http://svgjs.dev/svgjs"><g transform="matrix(1,0,0,1,0,0)"><g><g clip-rule="evenodd" fill-rule="evenodd"><path d="m253.064 276.889c.199-8.831-5.074-16.873-13.251-20.224-33.496-13.713-117.497-48.106-117.497-48.106-10.617-4.341-18.83-13.073-22.523-23.932-3.686-10.852-2.498-22.779 3.266-32.692l49.423-85.011c10.995-18.922 35.29-25.348 54.212-14.346 18.922 10.995 25.348 35.29 14.346 54.212l-26.529 45.63s28.8 11.792 51.543 21.107c17.94 7.344 37.062 11.379 56.432 11.92 17.428.491 39.389 1.103 56.461 1.58 18.118.505 36.193-2.049 53.465-7.572 26.11-8.347 62.424-19.961 62.424-19.961 16.716-5.344 34.962.939 44.847 15.442l68.096 99.941c12.318 18.09 7.643 42.783-10.447 55.101-18.09 12.325-42.776 7.643-55.101-10.44l-51.429-75.49s-30.863 9.87-50.312 16.083c-9.173 2.932-15.25 11.642-14.83 21.263 3.651 58.588 21.121 189.279 21.121 189.279l114.088 128.755c14.517 16.382 13.001 41.467-3.38 55.977-16.382 14.517-41.459 13.001-55.977-3.38l-120.815-136.335c-4.405-4.974-7.493-10.98-8.974-17.463 0 0-5.06-22.132-10.447-45.686-1.452-6.326-7.002-10.874-13.5-11.044-6.49-.171-12.276 4.078-14.055 10.326-16.951 49.536-52.326 124.649-123.531 200.957-14.937 16.005-40.05 16.873-56.048 1.943-16.005-14.937-16.873-40.05-1.936-56.048 102.496-109.84 118.337-215.616 118.337-215.616.357-2.579 1.617-61.494 2.521-106.17z" fill="#77894d" fill-opacity="1" data-original-color="#000000ff" stroke="none" stroke-opacity="1"/><path d="m279.849 85.212c-.292-2.548-.448-5.145-.448-7.771 0-36.848 29.917-66.765 66.772-66.765 36.848 0 66.765 29.917 66.765 66.765s-29.917 66.765-66.765 66.765c-25.078 0-46.946-13.848-58.361-34.322 14.19 2.996 34.478 3.821 55.201-6.945 5.223-2.718 7.266-9.166 4.547-14.396-2.711-5.223-9.166-7.266-14.389-4.547-23.953 12.438-47.109 3.941-53.322 1.216z" fill="#77894d" fill-opacity="1" data-original-color="#000000ff" stroke="none" stroke-opacity="1"/><path d="m85.909 422.239h-7.977c-13.613 0-24.651 11.037-24.651 24.651v21.918c0 1.886.754 3.693 2.085 5.031 1.338 1.331 3.145 2.085 5.031 2.085h21.918c11.507 0 24.943-9.301 24.943-23.171v-59.585l16.894 16.894c4.17 4.17 10.931 4.17 15.101 0 4.163-4.163 4.163-10.931 0-15.094l-35.119-35.119c-3.053-3.053-7.65-3.964-11.635-2.313-3.992 1.651-6.59 5.544-6.59 9.863z" fill="#77894d" fill-opacity="1" data-original-color="#000000ff" stroke="none" stroke-opacity="1"/><path d="m576.071 65.514h-7.97c-13.613 0-24.651 11.037-24.651 24.651v21.918c0 1.886.747 3.693 2.085 5.031 1.331 1.338 3.145 2.085 5.031 2.085h21.918c11.507 0 24.935-9.301 24.935-23.171v-59.584l16.901 16.901c4.163 4.163 10.931 4.163 15.094 0 4.163-4.17 4.163-10.931 0-15.101l-35.118-35.119c-3.053-3.053-7.643-3.964-11.635-2.313-3.985 1.651-6.59 5.544-6.59 9.863z" fill="#77894d" fill-opacity="1" data-original-color="#000000ff" stroke="none" stroke-opacity="1"/><path d="m68.197 227.096c-19.513 0-35.361 15.848-35.361 35.361 0 19.52 15.848 35.368 35.361 35.368 19.52 0 35.368-15.848 35.368-35.368 0-19.513-15.848-35.361-35.368-35.361zm0 21.349c7.735 0 14.019 6.277 14.019 14.012s-6.284 14.019-14.019 14.019-14.012-6.284-14.012-14.019 6.276-14.012 14.012-14.012z" fill="#77894d" fill-opacity="1" data-original-color="#000000ff" stroke="none" stroke-opacity="1"/><path d="m594.652 470.074c-19.513 0-35.361 15.841-35.361 35.361s15.848 35.361 35.361 35.361c19.52 0 35.368-15.841 35.368-35.361s-15.848-35.361-35.368-35.361zm0 21.349c7.735 0 14.019 6.277 14.019 14.012s-6.284 14.012-14.019 14.012-14.012-6.277-14.012-14.012 6.277-14.012 14.012-14.012z" fill="#77894d" fill-opacity="1" data-original-color="#000000ff" stroke="none" stroke-opacity="1"/><path d="m507.428 411.564h-3.843c-5.892 0-10.674 4.782-10.674 10.674s4.782 10.674 10.674 10.674h3.843v3.843c0 5.892 4.782 10.674 10.674 10.674s10.674-4.782 10.674-10.674v-3.843h3.85c5.892 0 10.674-4.782 10.674-10.674s-4.782-10.674-10.674-10.674h-3.85v-3.85c0-5.892-4.782-10.674-10.674-10.674s-10.674 4.782-10.674 10.674z" fill="#77894d" fill-opacity="1" data-original-color="#000000ff" stroke="none" stroke-opacity="1"/><path d="m47.353 51.95h-3.843c-5.892 0-10.674 4.782-10.674 10.674s4.782 10.674 10.674 10.674h3.843v3.85c0 5.885 4.782 10.674 10.674 10.674s10.674-4.789 10.674-10.674v-3.85h3.85c5.892 0 10.674-4.782 10.674-10.674s-4.781-10.674-10.673-10.674h-3.85v-3.843c0-5.892-4.782-10.674-10.674-10.674s-10.674 4.782-10.674 10.674c-.001 0-.001 3.843-.001 3.843z" fill="#77894d" fill-opacity="1" data-original-color="#000000ff" stroke="none" stroke-opacity="1"/></g></g><g/><g/><g/><g/><g/><g/><g/><g/><g/><g/><g/><g/><g/><g/><g/></g></svg>